<svg width="11" height="11" viewBox="0 0 11 11" fill="none" xmlns="http://www.w3.org/2000/svg">
<mask id="mask0_598_5261" style="mask-type:luminance" maskUnits="userSpaceOnUse" x="0" y="0" width="11" height="11">
<rect width="11" height="11" fill="white"/>
</mask>
<g mask="url(#mask0_598_5261)">
<path fill-rule="evenodd" clip-rule="evenodd" d="M9.51109 3.667V5.50033C9.51109 5.69018 9.35719 5.84408 9.16734 5.84408C8.97749 5.84408 8.82359 5.69018 8.82359 5.50033V4.71397L7.14358 6.99663C7.08754 7.07277 7.00262 7.12247 6.90879 7.13404C6.81497 7.1456 6.72052 7.11802 6.64767 7.05778L4.24719 5.07272L2.11154 7.99483C1.99951 8.14811 1.78445 8.18155 1.63117 8.06952C1.4779 7.9575 1.44446 7.74244 1.55648 7.58916L3.90748 4.37241C3.96338 4.29592 4.04837 4.24589 4.14237 4.23414C4.23638 4.22239 4.33106 4.24996 4.40407 4.31033L6.80548 6.29616L8.3247 4.23199L7.41738 4.45882C7.2332 4.50486 7.04657 4.39288 7.00052 4.2087C6.95448 4.02452 7.06646 3.83789 7.25064 3.79184L9.08397 3.33351C9.18666 3.30784 9.29546 3.33091 9.37889 3.39605C9.46232 3.46119 9.51109 3.56114 9.51109 3.667Z" fill="#4AB58E"/>
</g>
</svg>
