<svg width="29" height="35" viewBox="0 0 29 35" fill="none" xmlns="http://www.w3.org/2000/svg">
<g opacity="0.8">
<path d="M27.7539 16.4538C26.5077 14.9986 25.9415 13.7376 25.9415 11.5951V10.8667C25.9415 8.07486 25.2989 6.27605 23.9019 4.47725C21.7487 1.68369 18.1239 0 14.5754 0H14.4246C10.9507 0 7.43946 1.60638 5.24899 4.28655C3.77568 6.12143 3.05852 7.99754 3.05852 10.8667V11.5951C3.05852 13.7376 2.52955 14.9986 1.24613 16.4538C0.301783 17.5259 0 18.9038 0 20.395C0 21.888 0.489974 23.302 1.47331 24.4513C2.75674 25.8292 4.56913 26.7089 6.42052 26.8618C9.10096 27.1676 11.7814 27.2827 14.5008 27.2827C17.2186 27.2827 19.899 27.0903 22.5812 26.8618C24.4309 26.7089 26.2433 25.8292 27.5267 24.4513C28.5083 23.302 29 21.888 29 20.395C29 18.9038 28.6982 17.5259 27.7539 16.4538Z" fill="#205CAD"/>
<path d="M17.9292 29.3885C17.0764 29.2064 11.8799 29.2064 11.0272 29.3885C10.2981 29.5569 9.50977 29.9486 9.50977 30.8077C9.55215 31.6272 10.032 32.3505 10.6966 32.8092L10.6949 32.8109C11.5544 33.4809 12.5632 33.907 13.6194 34.0599C14.1823 34.1372 14.7554 34.1338 15.3386 34.0599C16.3931 33.907 17.4019 33.4809 18.2615 32.8109L18.2598 32.8092C18.9244 32.3505 19.4042 31.6272 19.4466 30.8077C19.4466 29.9486 18.6582 29.5569 17.9292 29.3885Z" fill="#205CAD"/>
</g>
</svg>
