<svg width="34" height="35" viewBox="0 0 34 35" fill="none" xmlns="http://www.w3.org/2000/svg">
<mask id="mask0_598_5977" style="mask-type:luminance" maskUnits="userSpaceOnUse" x="0" y="0" width="34" height="35">
<rect y="0.882812" width="34" height="34" fill="white"/>
</mask>
<g mask="url(#mask0_598_5977)">
<path fill-rule="evenodd" clip-rule="evenodd" d="M11.451 4.0459H20.8761C21.0803 4.0459 21.2757 4.12918 21.4172 4.2765L28.5926 11.7508C28.7267 11.8905 28.8015 12.0766 28.8015 12.2702V25.2554C28.8015 28.5426 26.1466 31.546 22.7688 31.546H11.451C7.93628 31.546 5.26953 28.7327 5.26953 25.2554V10.0786C5.26953 6.71926 8.14727 4.0459 11.451 4.0459ZM6.76953 10.0786V25.2554C6.76953 27.9434 8.80328 30.046 11.451 30.046H22.7688C25.2277 30.046 27.3015 27.8077 27.3015 25.2554V12.572L20.5565 5.5459H11.451C8.92096 5.5459 6.76953 7.60137 6.76953 10.0786Z" fill="#FFA800"/>
<path fill-rule="evenodd" clip-rule="evenodd" d="M20.5039 4.0293C20.9181 4.0293 21.2539 4.36508 21.2539 4.7793V8.90038C21.2539 10.4989 22.5472 11.7949 24.1435 11.7983H24.1436C25.0762 11.8004 26.019 11.8018 26.7445 11.8017C27.1074 11.8016 27.4151 11.8011 27.6397 11.8001C27.7521 11.7996 27.8426 11.799 27.9082 11.7982C27.9508 11.7978 27.9757 11.7973 27.988 11.797C27.9981 11.7968 27.9997 11.7968 27.9955 11.7971C28.4088 11.7698 28.7659 12.0828 28.7932 12.4961C28.8205 12.9094 28.5075 13.2666 28.0942 13.2938M20.5039 4.0293C20.0897 4.0293 19.7539 4.36508 19.7539 4.7793L20.5039 4.0293ZM19.7539 4.7793V8.90038V4.7793ZM19.7539 8.90038C19.7539 11.3252 21.716 13.2931 24.1402 13.2983L19.7539 8.90038ZM28.0942 13.2938L20.5039 4.0293L19.7539 4.7793V8.90038L24.1402 13.2983" fill="#FFA800"/>
<path fill-rule="evenodd" clip-rule="evenodd" d="M12.5898 22.1729H20.2356C20.6498 22.1729 20.9856 22.5086 20.9856 22.9229C20.9856 23.3371 20.6498 23.6729 20.2356 23.6729H12.5898C12.1756 23.6729 11.8398 23.3371 11.8398 22.9229C11.8398 22.5086 12.1756 22.1729 12.5898 22.1729Z" fill="#FFA800"/>
<path fill-rule="evenodd" clip-rule="evenodd" d="M12.5898 15.1572H17.3442C17.7584 15.1572 18.0942 15.493 18.0942 15.9072C18.0942 16.3214 17.7584 16.6572 17.3442 16.6572H12.5898C12.1756 16.6572 11.8398 16.3214 11.8398 15.9072C11.8398 15.493 12.1756 15.1572 12.5898 15.1572Z" fill="#FFA800"/>
</g>
</svg>
