<svg width="34" height="35" viewBox="0 0 34 35" fill="none" xmlns="http://www.w3.org/2000/svg">
<mask id="mask0_598_5243" style="mask-type:luminance" maskUnits="userSpaceOnUse" x="0" y="0" width="34" height="35">
<rect y="0.882812" width="34" height="34" fill="white"/>
</mask>
<g mask="url(#mask0_598_5243)">
<path d="M24.9258 16.3697C27.1958 16.3697 29.0372 14.5295 29.0372 12.2595C29.0372 9.98955 27.1958 8.14941 24.9258 8.14941" stroke="#6993FF" stroke-width="1.5" stroke-linecap="round" stroke-linejoin="round"/>
<path d="M26.8164 20.8359C27.4943 20.8827 28.1682 20.9789 28.8318 21.1282C29.7539 21.3087 30.8628 21.6866 31.2577 22.5138C31.5095 23.0437 31.5095 23.6605 31.2577 24.1916C30.8641 25.0188 29.7539 25.3955 28.8318 25.585" stroke="#6993FF" stroke-width="1.5" stroke-linecap="round" stroke-linejoin="round"/>
<path d="M8.91022 16.3697C6.64025 16.3697 4.79883 14.5295 4.79883 12.2595C4.79883 9.98955 6.64025 8.14941 8.91022 8.14941" stroke="#6993FF" stroke-width="1.5" stroke-linecap="round" stroke-linejoin="round"/>
<path d="M7.02051 20.8359C6.34263 20.8827 5.66865 20.9789 5.00506 21.1282C4.08305 21.3087 2.97403 21.6866 2.58055 22.5138C2.32732 23.0437 2.32732 23.6605 2.58055 24.1916C2.97274 25.0188 4.08305 25.3955 5.00506 25.585" stroke="#6993FF" stroke-width="1.5" stroke-linecap="round" stroke-linejoin="round"/>
<path fill-rule="evenodd" clip-rule="evenodd" d="M25.4414 25.2031C25.4414 27.9875 21.5378 28.7094 16.9121 28.7094C12.3111 28.7094 8.38281 28.0134 8.38281 25.2279C8.38281 22.4423 12.2864 21.7217 16.9121 21.7217C21.5118 21.7217 25.4414 22.4177 25.4414 25.2031Z" stroke="#6993FF" stroke-width="1.5" stroke-linecap="round" stroke-linejoin="round"/>
<path fill-rule="evenodd" clip-rule="evenodd" d="M11.4453 12.2813C11.4453 9.24773 13.8776 6.81543 16.9111 6.81543C19.9448 6.81543 22.3771 9.24773 22.3771 12.2813C22.3771 15.3161 19.9448 17.7484 16.9111 17.7484C13.8776 17.7484 11.4453 15.3161 11.4453 12.2813Z" stroke="#6993FF" stroke-width="1.5" stroke-linecap="round" stroke-linejoin="round"/>
</g>
</svg>
