<svg width="34" height="35" viewBox="0 0 34 35" fill="none" xmlns="http://www.w3.org/2000/svg">
<mask id="mask0_598_5269" style="mask-type:luminance" maskUnits="userSpaceOnUse" x="0" y="0" width="34" height="35">
<rect y="0.882812" width="34" height="34" fill="white"/>
</mask>
<g mask="url(#mask0_598_5269)">
<path fill-rule="evenodd" clip-rule="evenodd" d="M10.8594 4.0293H23.1404C25.472 4.0293 27.4199 4.85741 28.7812 6.31936C30.1369 7.77527 30.8548 9.79878 30.8548 12.0978V23.6691C30.8548 25.9681 30.1368 27.9917 28.781 29.4476C27.4195 30.9096 25.4712 31.7376 23.139 31.7376H10.8594C8.52785 31.7376 6.58024 30.9095 5.21929 29.4475C3.86399 27.9915 3.14648 25.968 3.14648 23.6691V12.0978C3.14648 9.79794 3.86774 7.77457 5.22441 6.31908C6.58653 4.85773 8.53373 4.0293 10.8594 4.0293ZM4.64648 12.0978V23.6691C4.64648 25.6585 5.26418 27.2942 6.31722 28.4254C7.36461 29.5506 8.89846 30.2376 10.8594 30.2376H23.139C25.1008 30.2376 26.6354 29.5506 27.6833 28.4253C28.7368 27.2941 29.3548 25.6583 29.3548 23.6691V12.0978C29.3548 10.1086 28.7368 8.47283 27.6834 7.34155C26.6356 6.21631 25.1014 5.5293 23.1404 5.5293H10.8594C8.90532 5.5293 7.37106 6.21599 6.32167 7.34183C5.26681 8.47352 4.64648 10.1094 4.64648 12.0978Z" fill="#F64E60"/>
<path fill-rule="evenodd" clip-rule="evenodd" d="M22.574 15.0518L15.8505 21.7753C15.5576 22.0681 15.0828 22.0682 14.7899 21.7754L11.4268 18.4136C11.1339 18.1208 11.1338 17.6459 11.4266 17.353C11.7194 17.06 12.1943 17.0599 12.4873 17.3528L15.32 20.1844L21.5133 13.9912C21.8062 13.6983 22.2811 13.6983 22.574 13.9912C22.8669 14.2841 22.8669 14.7589 22.574 15.0518Z" fill="#F64E60"/>
</g>
</svg>
