<svg width="34" height="34" viewBox="0 0 34 34" fill="none" xmlns="http://www.w3.org/2000/svg">
<path opacity="0.4" d="M23.6212 0.642578H29.139C31.4241 0.642578 33.2757 2.50986 33.2757 4.81431V10.3787C33.2757 12.6831 31.4241 14.5504 29.139 14.5504H23.6212C21.336 14.5504 19.4844 12.6831 19.4844 10.3787V4.81431C19.4844 2.50986 21.336 0.642578 23.6212 0.642578Z" fill="#205CAD"/>
<path d="M10.3382 19.3268C12.6233 19.3268 14.475 21.1941 14.475 23.4986V29.0629C14.475 31.3658 12.6233 33.2347 10.3382 33.2347H4.82038C2.53524 33.2347 0.683594 31.3658 0.683594 29.0629V23.4986C0.683594 21.1941 2.53524 19.3268 4.82038 19.3268H10.3382ZM29.1389 19.3268C31.424 19.3268 33.2757 21.1941 33.2757 23.4986V29.0629C33.2757 31.3658 31.424 33.2347 29.1389 33.2347H23.6211C21.336 33.2347 19.4843 31.3658 19.4843 29.0629V23.4986C19.4843 21.1941 21.336 19.3268 23.6211 19.3268H29.1389ZM10.3382 0.642578C12.6233 0.642578 14.475 2.50986 14.475 4.81431V10.3787C14.475 12.6831 12.6233 14.5504 10.3382 14.5504H4.82038C2.53524 14.5504 0.683594 12.6831 0.683594 10.3787V4.81431C0.683594 2.50986 2.53524 0.642578 4.82038 0.642578H10.3382Z" fill="#205CAD"/>
</svg>
