<svg width="36" height="36" viewBox="0 0 36 36" fill="none" xmlns="http://www.w3.org/2000/svg">
<path fill-rule="evenodd" clip-rule="evenodd" d="M17.5161 0C27.1745 0 35.0323 7.85774 35.0323 17.5161C35.0323 27.1745 27.1745 35.0323 17.5161 35.0323C7.85774 35.0323 0 27.1745 0 17.5161C0 7.85774 7.85774 0 17.5161 0ZM17.5161 2.62742C9.30633 2.62742 2.62742 9.30633 2.62742 17.5161C2.62742 25.726 9.30633 32.4049 17.5161 32.4049C25.726 32.4049 32.4049 25.726 32.4049 17.5161C32.4049 9.30633 25.726 2.62742 17.5161 2.62742ZM16.9227 8.92518C17.6496 8.92518 18.2364 9.51372 18.2364 10.2389V17.9845L24.2007 21.5403C24.8225 21.9134 25.0274 22.7191 24.6561 23.3427C24.4091 23.7543 23.9729 23.9838 23.5263 23.9838C23.2968 23.9838 23.0656 23.9243 22.8537 23.7999L16.2501 19.8605C15.8542 19.6223 15.609 19.1931 15.609 18.7307V10.2389C15.609 9.51372 16.1975 8.92518 16.9227 8.92518Z" fill="#205CAD"/>
</svg>
