<svg width="24" height="24" viewBox="0 0 24 24" fill="none" xmlns="http://www.w3.org/2000/svg">
<path fill-rule="evenodd" clip-rule="evenodd" d="M11.6038 0.405273C17.9806 0.405273 23.1686 5.52049 23.1686 11.8079C23.1686 18.0953 17.9806 23.2105 11.6038 23.2105C5.22701 23.2105 0.0390625 18.0953 0.0390625 11.8079C0.0390625 5.52049 5.22701 0.405273 11.6038 0.405273ZM11.6038 2.11567C6.18342 2.11567 1.77378 6.46349 1.77378 11.8079C1.77378 17.1523 6.18342 21.5001 11.6038 21.5001C17.0242 21.5001 21.4339 17.1523 21.4339 11.8079C21.4339 6.46349 17.0242 2.11567 11.6038 2.11567ZM16.2309 9.5569C16.5697 9.88986 16.5709 10.4315 16.2332 10.7667L12.2179 14.7417C12.0884 14.8712 11.9204 14.9548 11.7405 14.983L11.6038 14.9937C11.3737 14.9937 11.1516 14.9036 10.9897 14.7417L6.9756 10.7667C6.63676 10.4315 6.63907 9.88986 6.97792 9.5569C7.31792 9.22394 7.86725 9.22394 8.20494 9.55918L11.6038 12.9275L15.0039 9.55918C15.3415 9.22394 15.8909 9.22394 16.2309 9.5569Z" fill="#205CAD"/>
</svg>
