<svg width="139" height="38" viewBox="0 0 139 38" fill="none" xmlns="http://www.w3.org/2000/svg">
<path d="M138.119 0.870117H6.6263C3.11235 0.870117 0.263748 3.71873 0.263748 7.23267V31.0923C0.263748 34.6062 3.11237 37.4548 6.6263 37.4548H138.119V0.870117Z" fill="#205CAD"/>
<path d="M30.814 13.3876V11.4025H34.7843V25.3174H32.5892V13.3876H30.814ZM46.7448 13.2731H40.3504V17.0715C40.6176 16.7152 41.0121 16.4162 41.5338 16.1744C42.0683 15.9326 42.6346 15.8117 43.2326 15.8117C44.3015 15.8117 45.1669 16.0408 45.8286 16.4989C46.503 16.957 46.9802 17.536 47.2601 18.2359C47.5528 18.9357 47.6992 19.6738 47.6992 20.45C47.6992 21.3917 47.5146 22.2315 47.1456 22.9696C46.7893 23.6949 46.2485 24.2676 45.5232 24.6875C44.8106 25.1074 43.9325 25.3174 42.8891 25.3174C41.502 25.3174 40.3886 24.9738 39.5487 24.2866C38.7089 23.5995 38.2062 22.6896 38.0408 21.5571H40.1595C40.2995 22.1552 40.6113 22.6324 41.0948 22.9887C41.5784 23.3323 42.1828 23.5041 42.9081 23.5041C43.8116 23.5041 44.4861 23.2305 44.9314 22.6833C45.3895 22.1361 45.6186 21.4108 45.6186 20.5073C45.6186 19.5911 45.3895 18.8912 44.9314 18.4076C44.4733 17.9114 43.7989 17.6632 42.9081 17.6632C42.2846 17.6632 41.7565 17.8223 41.3239 18.1404C40.9039 18.4458 40.5985 18.8658 40.4077 19.4002H38.3462V11.3643H46.7448V13.2731ZM49.6207 14.7619C49.6207 13.833 49.888 13.1076 50.4224 12.5859C50.9696 12.0515 51.6695 11.7842 52.5221 11.7842C53.3747 11.7842 54.0682 12.0515 54.6026 12.5859C55.1498 13.1076 55.4234 13.833 55.4234 14.7619C55.4234 15.6908 55.1498 16.4225 54.6026 16.957C54.0682 17.4914 53.3747 17.7587 52.5221 17.7587C51.6695 17.7587 50.9696 17.4914 50.4224 16.957C49.888 16.4225 49.6207 15.6908 49.6207 14.7619ZM61.2642 12.0324L53.6482 25.3174H51.5104L59.1264 12.0324H61.2642ZM52.5221 13.1013C51.7204 13.1013 51.3195 13.6548 51.3195 14.7619C51.3195 15.8817 51.7204 16.4416 52.5221 16.4416C52.9038 16.4416 53.1965 16.308 53.4001 16.0408C53.6164 15.7608 53.7246 15.3345 53.7246 14.7619C53.7246 13.6548 53.3238 13.1013 52.5221 13.1013ZM57.3894 22.5688C57.3894 21.6398 57.6567 20.9145 58.1911 20.3928C58.7383 19.8583 59.4382 19.5911 60.2907 19.5911C61.1306 19.5911 61.8178 19.8583 62.3522 20.3928C62.8994 20.9145 63.173 21.6398 63.173 22.5688C63.173 23.4977 62.8994 24.2294 62.3522 24.7638C61.8178 25.2983 61.1306 25.5655 60.2907 25.5655C59.4382 25.5655 58.7383 25.2983 58.1911 24.7638C57.6567 24.2294 57.3894 23.4977 57.3894 22.5688ZM60.2717 20.9081C59.47 20.9081 59.0691 21.4617 59.0691 22.5688C59.0691 23.6758 59.47 24.2294 60.2717 24.2294C61.0733 24.2294 61.4742 23.6758 61.4742 22.5688C61.4742 21.4617 61.0733 20.9081 60.2717 20.9081ZM74.9255 25.4892C73.9329 25.4892 73.0358 25.2665 72.2341 24.8211C71.4324 24.363 70.8025 23.7267 70.3444 22.9123C69.8863 22.0852 69.6573 21.1308 69.6573 20.0492C69.6573 18.9803 69.8927 18.0323 70.3635 17.2051C70.8344 16.378 71.477 15.7417 72.2914 15.2964C73.1058 14.851 74.0156 14.6283 75.0209 14.6283C76.0262 14.6283 76.936 14.851 77.7504 15.2964C78.5649 15.7417 79.2075 16.378 79.6783 17.2051C80.1491 18.0323 80.3845 18.9803 80.3845 20.0492C80.3845 21.1181 80.1428 22.0661 79.6592 22.8932C79.1757 23.7204 78.514 24.363 77.6741 24.8211C76.847 25.2665 75.9308 25.4892 74.9255 25.4892ZM74.9255 23.5995C75.4854 23.5995 76.0071 23.4659 76.4907 23.1987C76.9869 22.9314 77.3878 22.5306 77.6932 21.9961C77.9986 21.4617 78.1513 20.8127 78.1513 20.0492C78.1513 19.2857 78.005 18.6431 77.7123 18.1213C77.4196 17.5869 77.0315 17.186 76.5479 16.9188C76.0644 16.6516 75.5426 16.518 74.9827 16.518C74.4228 16.518 73.9011 16.6516 73.4175 16.9188C72.9467 17.186 72.5713 17.5869 72.2914 18.1213C72.0114 18.6431 71.8714 19.2857 71.8714 20.0492C71.8714 21.1817 72.1578 22.0598 72.7304 22.6833C73.3157 23.2941 74.0474 23.5995 74.9255 23.5995ZM86.9449 16.5752H84.9979V25.3174H82.8029V16.5752H81.5622V14.8001H82.8029V14.0557C82.8029 12.8468 83.121 11.9687 83.7572 11.4216C84.4062 10.8617 85.4179 10.5817 86.7922 10.5817V12.395C86.1305 12.395 85.666 12.5223 85.3988 12.7768C85.1316 13.0186 84.9979 13.4449 84.9979 14.0557V14.8001H86.9449V16.5752ZM93.2826 16.5752H91.3356V25.3174H89.1406V16.5752H87.8999V14.8001H89.1406V14.0557C89.1406 12.8468 89.4587 11.9687 90.095 11.4216C90.7439 10.8617 91.7556 10.5817 93.1299 10.5817V12.395C92.4682 12.395 92.0037 12.5223 91.7365 12.7768C91.4693 13.0186 91.3356 13.4449 91.3356 14.0557V14.8001H93.2826V16.5752Z" fill="white"/>
</svg>
