<svg width="36" height="36" viewBox="0 0 36 36" fill="none" xmlns="http://www.w3.org/2000/svg">
<path fill-rule="evenodd" clip-rule="evenodd" d="M16.3936 0.0628662C17.1086 0.0628662 17.6889 0.643169 17.6889 1.35819C17.6889 2.0732 17.1086 2.65351 16.3936 2.65351H9.93596C5.47316 2.65351 2.59064 5.71046 2.59064 10.441V24.8C2.59064 29.5305 5.47316 32.5875 9.93596 32.5875H25.1758C29.6386 32.5875 32.5229 29.5305 32.5229 24.8V17.8433C32.5229 17.1283 33.1032 16.548 33.8182 16.548C34.5332 16.548 35.1135 17.1283 35.1135 17.8433V24.8C35.1135 31.0072 31.1188 35.1781 25.1758 35.1781H9.93596C3.99304 35.1781 0 31.0072 0 24.8V10.441C0 4.2338 3.99304 0.0628662 9.93596 0.0628662H16.3936ZM31.4359 1.58029L33.5377 3.68216C34.5619 4.7046 35.1249 6.06382 35.1232 7.51113C35.1232 8.95843 34.5602 10.3159 33.5377 11.3366L20.569 24.3054C19.6174 25.257 18.3497 25.782 17.0025 25.782H10.5328C10.184 25.782 9.84892 25.6404 9.6054 25.39C9.36188 25.1413 9.22889 24.8045 9.23753 24.4539L9.39987 17.9272C9.43269 16.6284 9.956 15.4074 10.8748 14.4869H10.8765L23.7831 1.58029C25.8936 -0.526763 29.3253 -0.526763 31.4359 1.58029ZM22.7199 6.30562L12.7073 16.3193C12.2599 16.7666 12.0061 17.3607 11.9905 17.9911L11.861 23.1914H17.0025C17.6588 23.1914 18.2737 22.9375 18.7383 22.4729L28.8114 12.3971L22.7199 6.30562ZM25.6138 3.41274L24.5506 4.47317L30.6421 10.5664L31.707 9.50419C32.2389 8.97225 32.5326 8.26414 32.5326 7.51113C32.5326 6.75639 32.2389 6.04655 31.707 5.51461L29.6051 3.41274C28.505 2.31603 26.7157 2.31603 25.6138 3.41274Z" fill="#205CAD"/>
</svg>
