<svg width="23" height="23" viewBox="0 0 23 23" fill="none" xmlns="http://www.w3.org/2000/svg">
<path d="M11.5 10.0625C12.2939 10.0625 12.9375 9.41891 12.9375 8.625C12.9375 7.83109 12.2939 7.1875 11.5 7.1875C10.7061 7.1875 10.0625 7.83109 10.0625 8.625C10.0625 9.41891 10.7061 10.0625 11.5 10.0625Z" fill="white"/>
<path d="M11.5 1.4375C7.53699 1.4375 4.3125 4.52139 4.3125 8.31055C4.3125 10.1151 5.13502 12.5148 6.75715 15.4432C8.05988 17.7945 9.56701 19.9206 10.3509 20.9785C10.4834 21.1593 10.6565 21.3063 10.8564 21.4076C11.0563 21.5089 11.2772 21.5618 11.5013 21.5618C11.7254 21.5618 11.9464 21.5089 12.1463 21.4076C12.3461 21.3063 12.5193 21.1593 12.6518 20.9785C13.4343 19.9206 14.9428 17.7945 16.2455 15.4432C17.865 12.5157 18.6875 10.116 18.6875 8.31055C18.6875 4.52139 15.463 1.4375 11.5 1.4375ZM11.5 11.5C10.9314 11.5 10.3755 11.3314 9.90274 11.0155C9.42994 10.6996 9.06145 10.2506 8.84385 9.72522C8.62624 9.19988 8.56931 8.62181 8.68024 8.06412C8.79117 7.50642 9.06499 6.99414 9.46707 6.59207C9.86914 6.18999 10.3814 5.91617 10.9391 5.80524C11.4968 5.69431 12.0749 5.75124 12.6002 5.96885C13.1256 6.18645 13.5746 6.55494 13.8905 7.02774C14.2064 7.50053 14.375 8.05638 14.375 8.625C14.3742 9.38724 14.071 10.118 13.532 10.657C12.993 11.196 12.2622 11.4992 11.5 11.5Z" fill="white"/>
</svg>
