<svg width="33" height="38" viewBox="0 0 33 38" fill="none" xmlns="http://www.w3.org/2000/svg">
<g opacity="0.8">
<path d="M30.69 18.1542C29.326 16.5837 28.7062 15.2228 28.7062 12.9108V12.1246C28.7062 9.11173 28.0029 7.17049 26.4739 5.22924C24.1172 2.21448 20.1497 0.397461 16.2658 0.397461H16.1006C12.2983 0.397461 8.45522 2.13104 6.05768 5.02344C4.4451 7.00362 3.66015 9.02829 3.66015 12.1246V12.9108C3.66015 15.2228 3.08117 16.5837 1.67642 18.1542C0.642811 19.3111 0.3125 20.7981 0.3125 22.4075C0.3125 24.0187 0.848791 25.5446 1.92509 26.785C3.32983 28.272 5.31356 29.2213 7.33996 29.3863C10.2738 29.7163 13.2076 29.8406 16.1841 29.8406C19.1588 29.8406 22.0926 29.6329 25.0283 29.3863C27.0528 29.2213 29.0366 28.272 30.4413 26.785C31.5157 25.5446 32.0539 24.0187 32.0539 22.4075C32.0539 20.7981 31.7236 19.3111 30.69 18.1542Z" fill="#205CAD"/>
<path d="M19.9341 32.1122C19.0006 31.9157 13.313 31.9157 12.3796 32.1122C11.5816 32.2939 10.7188 32.7167 10.7188 33.6437C10.7651 34.5281 11.2903 35.3087 12.0177 35.8038L12.0159 35.8056C12.9567 36.5287 14.0608 36.9885 15.2169 37.1535C15.833 37.237 16.4602 37.2333 17.0986 37.1535C18.2528 36.9885 19.3569 36.5287 20.2978 35.8056L20.2959 35.8038C21.0233 35.3087 21.5485 34.5281 21.5949 33.6437C21.5949 32.7167 20.732 32.2939 19.9341 32.1122Z" fill="#205CAD"/>
</g>
</svg>
