<svg width="32" height="34" viewBox="0 0 32 34" fill="none" xmlns="http://www.w3.org/2000/svg">
<path fill-rule="evenodd" clip-rule="evenodd" d="M16.7317 0.0166016C17.8985 0.0166016 19.0327 0.495706 19.8458 1.32843C20.6574 2.16605 21.1055 3.31492 21.0713 4.48009C21.0746 4.74246 21.1609 5.04556 21.3174 5.31119C21.5765 5.75118 21.9855 6.06081 22.4711 6.18792C22.9568 6.30851 23.4652 6.24332 23.897 5.98747C25.9829 4.79623 28.6376 5.51 29.8288 7.5796L30.8441 9.33794C30.8701 9.3852 30.8929 9.43083 30.9125 9.47809C31.9913 11.5167 31.271 14.0834 29.2666 15.255C28.9749 15.4229 28.7386 15.6575 28.5756 15.9411C28.3231 16.3795 28.253 16.9009 28.3801 17.38C28.5105 17.8689 28.8217 18.2747 29.2601 18.5257C30.2492 19.0944 30.9875 20.0526 31.2824 21.1591C31.5774 22.264 31.416 23.4634 30.8408 24.4525L29.7587 26.2549C28.5675 28.3017 25.9129 29.0105 23.8482 27.8177C23.5728 27.6596 23.255 27.5732 22.9388 27.5651H22.9291C22.4581 27.5651 21.9741 27.7655 21.6221 28.1159C21.2652 28.4728 21.0697 28.9486 21.0729 29.4538C21.0615 31.8477 19.1142 33.7836 16.7317 33.7836H14.6898C12.2959 33.7836 10.3485 31.8379 10.3485 29.444C10.3453 29.149 10.2605 28.8427 10.1024 28.5771C9.84659 28.1305 9.43267 27.8111 8.9552 27.684C8.48099 27.5569 7.96114 27.627 7.53418 27.8747C6.51079 28.4451 5.30651 28.5836 4.2049 28.274C3.10492 27.9627 2.15486 27.2066 1.59753 26.2044L0.579031 24.4493C-0.61221 22.3829 0.0966677 19.7348 2.15975 18.542C2.74478 18.2046 3.10818 17.5756 3.10818 16.9009C3.10818 16.2263 2.74478 15.5956 2.15975 15.2583C0.0950382 14.0589 -0.61221 11.4043 0.577401 9.33794L1.68227 7.52419C2.85722 5.48067 5.51347 4.76038 7.5847 5.94999C7.86662 6.11784 8.17299 6.20258 8.48424 6.20584C9.49949 6.20584 10.3485 5.36822 10.3648 4.33831C10.3583 3.20248 10.8064 2.11227 11.6229 1.28932C12.4426 0.468002 13.5311 0.0166016 14.6898 0.0166016H16.7317ZM16.7317 2.46101H14.6898C14.1846 2.46101 13.712 2.65819 13.3551 3.01344C12.9999 3.37033 12.806 3.84454 12.8092 4.34972C12.775 6.7322 10.8276 8.65025 8.46958 8.65025C7.71344 8.6421 6.98501 8.4384 6.35272 8.06033C5.46459 7.55515 4.30431 7.86641 3.78446 8.77084L2.68122 10.5846C2.17604 11.4613 2.48567 12.62 3.38521 13.1431C4.71986 13.9155 5.55259 15.3561 5.55259 16.9009C5.55259 18.4458 4.71986 19.8847 3.38195 20.6588C2.4873 21.177 2.17767 22.3292 2.69589 23.2254L3.72417 24.9984C3.97839 25.4564 4.39394 25.7872 4.87467 25.9224C5.35377 26.0561 5.88177 25.999 6.32176 25.7546C6.96871 25.3749 7.72159 25.1777 8.47773 25.1777C8.85091 25.1777 9.22408 25.225 9.58912 25.3227C10.6907 25.6193 11.6473 26.3559 12.2144 27.3451C12.5827 27.966 12.7864 28.6911 12.7929 29.431C12.7929 30.4902 13.6436 31.3392 14.6898 31.3392H16.7317C17.773 31.3392 18.6236 30.4951 18.6285 29.4538C18.622 28.3033 19.0718 27.2098 19.8947 26.3869C20.7063 25.5753 21.8405 25.0881 22.9747 25.1207C23.7178 25.1386 24.4332 25.339 25.0638 25.6975C25.9715 26.2174 27.1302 25.9078 27.6549 25.0115L28.737 23.2075C28.9782 22.792 29.0482 22.2705 28.9195 21.7898C28.7924 21.309 28.473 20.8918 28.0428 20.6458C27.0357 20.0656 26.317 19.1302 26.0188 18.0091C25.7238 16.9091 25.8852 15.7081 26.4604 14.7189C26.8352 14.0671 27.3844 13.5179 28.0428 13.1398C28.926 12.6232 29.2356 11.4678 28.7223 10.5683C28.7011 10.5324 28.6816 10.495 28.6653 10.4559L27.7103 8.80017C27.1905 7.89574 26.0335 7.58449 25.1258 8.10107C24.1447 8.68121 22.978 8.84743 21.8568 8.55247C20.7372 8.2624 19.7986 7.55352 19.2136 6.55295C18.8388 5.92718 18.6351 5.19875 18.6285 4.45728C18.6432 3.89995 18.4476 3.39966 18.0924 3.033C17.7388 2.66797 17.2417 2.46101 16.7317 2.46101ZM15.7179 11.3816C18.7604 11.3816 21.2357 13.8586 21.2357 16.9011C21.2357 19.9436 18.7604 22.4173 15.7179 22.4173C12.6754 22.4173 10.2001 19.9436 10.2001 16.9011C10.2001 13.8586 12.6754 11.3816 15.7179 11.3816ZM15.7179 13.826C14.0231 13.826 12.6445 15.2063 12.6445 16.9011C12.6445 18.5959 14.0231 19.9729 15.7179 19.9729C17.4127 19.9729 18.7913 18.5959 18.7913 16.9011C18.7913 15.2063 17.4127 13.826 15.7179 13.826Z" fill="#205CAD"/>
</svg>
