<svg width="48" height="48" viewBox="0 0 48 48" fill="none" xmlns="http://www.w3.org/2000/svg">
<path d="M6 4L10 40.46C10.26 42.46 11.94 44 14 44H34C36 44 37.74 42.46 38 40.46L42 4H6ZM10.44 8H37.56L34 40H14L10.44 8Z" fill="#205CAD"/>
<path d="M23.7624 31.1327C22.8778 31.1327 22.0817 30.981 21.374 30.6778C20.6664 30.3618 20.1103 29.9196 19.706 29.3509C19.3016 28.7822 19.0994 28.1188 19.0994 27.3606H21.4119C21.4625 27.9293 21.6836 28.3968 22.0754 28.7633C22.4797 29.1298 23.0421 29.313 23.7624 29.313C24.5079 29.313 25.0892 29.1361 25.5062 28.7822C25.9233 28.4158 26.1318 27.9482 26.1318 27.3796C26.1318 26.9373 25.9991 26.5771 25.7337 26.2991C25.481 26.0211 25.1587 25.8063 24.767 25.6546C24.3879 25.503 23.8571 25.3387 23.1748 25.1618C22.3155 24.9343 21.6141 24.7069 21.0707 24.4794C20.54 24.2393 20.0851 23.8729 19.706 23.38C19.3269 22.8872 19.1373 22.2301 19.1373 21.4087C19.1373 20.6505 19.3269 19.987 19.706 19.4184C20.0851 18.8497 20.6158 18.4138 21.2982 18.1105C21.9806 17.8072 22.7704 17.6556 23.6676 17.6556C24.9439 17.6556 25.9864 17.9778 26.7952 18.6223C27.6166 19.2541 28.0715 20.1261 28.16 21.2381H25.7716C25.7337 20.7579 25.5062 20.3472 25.0892 20.006C24.6722 19.6648 24.1225 19.4942 23.4401 19.4942C22.8209 19.4942 22.3155 19.6522 21.9237 19.9681C21.532 20.284 21.3361 20.7389 21.3361 21.3329C21.3361 21.7372 21.4562 22.0721 21.6963 22.3375C21.949 22.5902 22.2649 22.7924 22.644 22.9441C23.0231 23.0957 23.5412 23.26 24.1983 23.4369C25.0703 23.677 25.7779 23.9171 26.3213 24.1572C26.8773 24.3973 27.3449 24.7701 27.724 25.2755C28.1157 25.7684 28.3116 26.4318 28.3116 27.2658C28.3116 27.9356 28.1284 28.5674 27.7619 29.1613C27.4081 29.7553 26.8837 30.2355 26.1886 30.6019C25.5062 30.9558 24.6975 31.1327 23.7624 31.1327Z" fill="#205CAD"/>
</svg>
