<svg width="19" height="19" viewBox="0 0 19 19" fill="none" xmlns="http://www.w3.org/2000/svg">
<path d="M14.8273 18.2247C14.6952 18.2252 14.5662 18.1846 14.4588 18.1088L9.41214 14.509L4.36543 18.1088C4.25761 18.1858 4.12772 18.227 3.99452 18.2265C3.86133 18.226 3.73174 18.1839 3.62449 18.1062C3.51725 18.0285 3.4379 17.9192 3.39791 17.7942C3.35793 17.6692 3.35939 17.5349 3.40208 17.4108L5.37038 11.6748L0.269127 8.23294C0.15863 8.15847 0.0752338 8.05119 0.0311224 7.92676C-0.0129889 7.80234 -0.0155033 7.6673 0.0239467 7.54137C0.0633966 7.41544 0.142743 7.30522 0.250394 7.22682C0.358044 7.14841 0.488356 7.10594 0.62229 7.10559H6.91567L8.8149 1.35494C8.85582 1.23079 8.93565 1.12257 9.04294 1.04582C9.15024 0.969074 9.27949 0.927734 9.41214 0.927734C9.5448 0.927734 9.67404 0.969074 9.78134 1.04582C9.88864 1.12257 9.96847 1.23079 10.0094 1.35494L11.9086 7.10752H18.202C18.3361 7.10746 18.4667 7.14964 18.5747 7.22789C18.6826 7.30614 18.7623 7.41635 18.802 7.54238C18.8417 7.6684 18.8393 7.80362 18.7953 7.92824C18.7512 8.05285 18.6678 8.16031 18.5571 8.23487L13.4539 11.6748L15.421 17.4093C15.4529 17.5021 15.4619 17.6011 15.4472 17.698C15.4325 17.7949 15.3946 17.887 15.3366 17.9667C15.2786 18.0463 15.2021 18.1113 15.1136 18.1561C15.025 18.201 14.9269 18.2245 14.8273 18.2247Z" fill="#FFC700"/>
</svg>
