<svg width="50" height="50" viewBox="0 0 50 50" fill="none" xmlns="http://www.w3.org/2000/svg">
<path d="M11.3384 11.1523V10.6983C11.1966 10.6983 11.0631 10.7645 10.9772 10.8772C10.8913 10.99 10.863 11.1363 10.9006 11.2729L11.3384 11.1523ZM15.7514 27.1702L15.3137 27.2908L15.3156 27.2973L15.7514 27.1702ZM21.5742 31.5832L21.5697 32.0373H21.5742V31.5832ZM39.4309 31.5832V32.0373C39.6816 32.0373 39.8849 31.834 39.8849 31.5832H39.4309ZM39.4309 11.1523H39.8849C39.8849 10.9016 39.6816 10.6983 39.4309 10.6983V11.1523ZM10.848 11.6064C11.0988 11.6064 11.302 11.4031 11.302 11.1523C11.302 10.9016 11.0988 10.6983 10.848 10.6983V11.6064ZM4.71875 10.6983C4.468 10.6983 4.26473 10.9016 4.26473 11.1523C4.26473 11.4031 4.468 11.6064 4.71875 11.6064V10.6983ZM10.9006 11.2729L15.3137 27.2908L16.1892 27.0496L11.7761 11.0317L10.9006 11.2729ZM15.3156 27.2973C15.7112 28.654 16.5329 29.8474 17.6592 30.701L18.2077 29.9773C17.2367 29.2414 16.5284 28.2126 16.1873 27.0431L15.3156 27.2973ZM17.6592 30.701C18.7855 31.5546 20.1566 32.0231 21.5697 32.0372L21.5788 31.1292C20.3606 31.117 19.1786 30.7132 18.2077 29.9773L17.6592 30.701ZM21.5742 32.0373H39.4309V31.1292H21.5742V32.0373ZM39.8849 31.5832V11.1523H38.9768V31.5832H39.8849ZM39.4309 10.6983H11.3384V11.6064H39.4309V10.6983ZM24.6956 38.7341C24.6956 40.1759 23.5268 41.3447 22.085 41.3447V42.2527C24.0283 42.2527 25.6037 40.6774 25.6037 38.7341H24.6956ZM22.085 41.3447C20.6432 41.3447 19.4744 40.1759 19.4744 38.7341H18.5664C18.5664 40.6774 20.1417 42.2527 22.085 42.2527V41.3447ZM19.4744 38.7341C19.4744 37.2923 20.6432 36.1234 22.085 36.1234V35.2154C20.1417 35.2154 18.5664 36.7908 18.5664 38.7341H19.4744ZM22.085 36.1234C23.5268 36.1234 24.6956 37.2923 24.6956 38.7341H25.6037C25.6037 36.7908 24.0283 35.2154 22.085 35.2154V36.1234ZM38.9973 38.7341C38.9973 40.1759 37.8284 41.3447 36.3866 41.3447V42.2527C38.3299 42.2527 39.9053 40.6774 39.9053 38.7341H38.9973ZM36.3866 41.3447C34.9448 41.3447 33.776 40.1759 33.776 38.7341H32.868C32.868 40.6774 34.4433 42.2527 36.3866 42.2527V41.3447ZM33.776 38.7341C33.776 37.2923 34.9448 36.1234 36.3866 36.1234V35.2154C34.4433 35.2154 32.868 36.7908 32.868 38.7341H33.776ZM36.3866 36.1234C37.8284 36.1234 38.9973 37.2923 38.9973 38.7341H39.9053C39.9053 36.7908 38.3299 35.2154 36.3866 35.2154V36.1234ZM10.848 10.6983H4.71875V11.6064H10.848V10.6983Z" fill="#205CAD"/>
</svg>
