<svg width="27" height="27" viewBox="0 0 27 27" fill="none" xmlns="http://www.w3.org/2000/svg">
<path fill-rule="evenodd" clip-rule="evenodd" d="M0.171875 13.0372C0.171875 5.87114 6.0019 0.0411148 13.1679 0.0411148C20.3339 0.0411148 26.164 5.87114 26.164 13.0372C26.164 20.2032 20.3339 26.0332 13.1679 26.0332C6.0019 26.0332 0.171875 20.2032 0.171875 13.0372ZM2.12128 13.0372C2.12128 19.1284 7.07667 24.0838 13.1679 24.0838C19.2592 24.0838 24.2146 19.1284 24.2146 13.0372C24.2146 6.94591 19.2592 1.99052 13.1679 1.99052C7.07667 1.99052 2.12128 6.94591 2.12128 13.0372ZM10.6024 7.83744C10.9819 7.45666 11.5992 7.45536 11.9812 7.83484L16.5117 12.3471C16.6593 12.4926 16.7545 12.6814 16.7867 12.8835L16.7989 13.0372C16.7989 13.2958 16.6962 13.5453 16.5117 13.7272L11.9812 18.2382C11.5992 18.619 10.9819 18.6164 10.6024 18.2356C10.2229 17.8535 10.2229 17.2362 10.605 16.8567L14.444 13.0372L10.605 9.21632C10.2229 8.83684 10.2229 8.21952 10.6024 7.83744Z" fill="#205CAD"/>
</svg>
