<svg width="34" height="32" viewBox="0 0 34 32" fill="none" xmlns="http://www.w3.org/2000/svg">
<path fill-rule="evenodd" clip-rule="evenodd" d="M16.6789 1.70507C19.3287 0.029837 22.8486 -0.432971 25.8895 0.541533C32.504 2.67469 34.5573 9.88569 32.7208 15.6235C29.8869 24.6352 17.7838 31.3574 17.2705 31.6393C17.088 31.7403 16.8859 31.7908 16.6838 31.7908C16.4818 31.7908 16.2813 31.7419 16.0988 31.6425C15.5887 31.3639 3.57365 24.7412 0.645253 15.6252C0.643623 15.6252 0.643623 15.6235 0.643623 15.6235C-1.19457 9.88406 0.852213 2.67143 7.46026 0.541533C10.563 -0.462304 13.9445 -0.0206808 16.6789 1.70507ZM8.20988 2.86861C2.86315 4.59273 1.52035 10.3436 2.97233 14.8788C5.25703 21.9871 14.2834 27.7347 16.6822 29.1574C19.0891 27.7201 28.1807 21.9089 30.3921 14.8853C31.844 10.3452 30.4964 4.59436 25.1415 2.86861C22.5471 2.03588 19.521 2.54269 17.4318 4.15926C16.9951 4.49495 16.3889 4.50147 15.9489 4.16903C13.7359 2.50521 10.8449 2.01795 8.20988 2.86861ZM23.5771 6.10484C25.7982 6.8235 27.3545 8.79043 27.5451 11.1159C27.5989 11.7889 27.0986 12.3788 26.4256 12.4326C26.3914 12.4359 26.3588 12.4375 26.3246 12.4375C25.6939 12.4375 25.1594 11.9535 25.1073 11.3147C24.9997 9.97515 24.1034 8.84421 22.8274 8.43192C22.1837 8.22333 21.8317 7.534 22.0387 6.89357C22.2489 6.25151 22.9317 5.90277 23.5771 6.10484Z" fill="#205CAD"/>
</svg>
