<svg width="33" height="33" viewBox="0 0 33 33" fill="none" xmlns="http://www.w3.org/2000/svg">
<g clip-path="url(#clip0_486_4109)">
<path d="M23.4612 22.2557L20.0032 18.6576L19.9938 18.6476C19.8124 18.4652 19.5885 18.331 19.3423 18.257C19.096 18.183 18.8352 18.1715 18.5834 18.2237C18.5538 18.2297 18.5246 18.2374 18.4959 18.2467L15.5629 19.2251C14.4521 17.9954 13.5973 16.0028 13.4772 14.3674L16.2345 12.9051C16.2614 12.89 16.2875 12.8744 16.3134 12.8568C16.5228 12.7112 16.693 12.5162 16.8087 12.2891C16.9245 12.0619 16.9824 11.8097 16.9771 11.5547L16.9814 11.544L16.7929 6.54776C16.7845 6.21417 16.6685 5.89222 16.4622 5.62996C16.2559 5.36771 15.9702 5.17923 15.648 5.09264C14.3689 4.76177 13.0131 4.90781 11.8339 5.50348C10.6546 6.09916 9.73248 7.10375 9.23976 8.3296C6.36448 15.4462 9.8152 23.5755 16.9318 26.4508C18.1558 26.9479 19.519 26.9825 20.7667 26.548C22.0144 26.1135 23.0612 25.2396 23.7118 24.0897C23.8734 23.7979 23.9363 23.4616 23.8911 23.1311C23.846 22.8006 23.6952 22.4935 23.4612 22.2557ZM17.5112 25.0167C14.4708 23.7845 12.0434 21.3965 10.7616 18.3767C9.4798 15.357 9.44822 11.952 10.6738 8.909C11.0241 8.0324 11.6814 7.31326 12.5231 6.88588C13.3648 6.4585 14.3333 6.35211 15.2477 6.58657C15.2459 6.59 15.2444 6.5936 15.2434 6.59732L15.4236 11.5704L12.675 13.0393C12.6475 13.0533 12.6211 13.0695 12.5961 13.0876C12.3776 13.2401 12.2022 13.4465 12.0869 13.6866C11.9715 13.9268 11.9202 14.1928 11.9379 14.4586C12.0789 16.4475 13.0813 18.7844 14.4323 20.2738C14.6133 20.4709 14.8423 20.6176 15.097 20.6997C15.3517 20.7817 15.6233 20.7963 15.8853 20.742C15.9145 20.7358 15.9434 20.728 15.9719 20.7186L18.9018 19.74L22.3521 23.3287L22.3619 23.3327C21.8963 24.1551 21.147 24.7798 20.2542 25.0897C19.3614 25.3997 18.3862 25.3737 17.5112 25.0167Z" fill="white"/>
</g>
<defs>
<clipPath id="clip0_486_4109">
<rect width="24.7471" height="24.7471" fill="white" transform="translate(9.26953) rotate(22)"/>
</clipPath>
</defs>
</svg>
