<svg width="90" height="38" viewBox="0 0 90 38" fill="none" xmlns="http://www.w3.org/2000/svg">
<g opacity="0.6" filter="url(#filter0_b_276_3537)">
<rect x="0.210938" y="0.816406" width="89.0758" height="36.5847" rx="6.36256" fill="white"/>
</g>
<path d="M44.9332 24.3522V22.3692L50.8281 13.9325H53.7666V22.1529H55.353V24.3522H53.7666V26.9121H51.2428V24.3522H44.9332ZM51.405 16.6366L47.7094 22.1529H51.405V16.6366ZM58.3659 27.0383C57.9092 27.0383 57.5306 26.9001 57.2302 26.6237C56.9418 26.3352 56.7975 25.9807 56.7975 25.5601C56.7975 25.1394 56.9418 24.7909 57.2302 24.5145C57.5306 24.2261 57.9092 24.0818 58.3659 24.0818C58.8106 24.0818 59.1771 24.2261 59.4656 24.5145C59.754 24.7909 59.8982 25.1394 59.8982 25.5601C59.8982 25.9807 59.754 26.3352 59.4656 26.6237C59.1771 26.9001 58.8106 27.0383 58.3659 27.0383ZM70.476 15.9515H64.6352V19.0342C64.8875 18.7217 65.2481 18.4694 65.7168 18.2771C66.1855 18.0728 66.6843 17.9706 67.2131 17.9706C68.1745 17.9706 68.9617 18.1809 69.5746 18.6016C70.1875 19.0222 70.6322 19.563 70.9086 20.224C71.1851 20.873 71.3233 21.57 71.3233 22.3152C71.3233 23.6973 70.9267 24.8089 70.1335 25.6502C69.3523 26.4915 68.2346 26.9121 66.7804 26.9121C65.4103 26.9121 64.3167 26.5696 63.4994 25.8846C62.6822 25.1995 62.2195 24.3042 62.1113 23.1985H64.563C64.6712 23.6792 64.9116 24.0638 65.2841 24.3522C65.6687 24.6407 66.1555 24.7849 66.7443 24.7849C67.4534 24.7849 67.9882 24.5626 68.3488 24.1179C68.7093 23.6732 68.8896 23.0843 68.8896 22.3512C68.8896 21.6061 68.7033 21.0412 68.3307 20.6567C67.9702 20.2601 67.4354 20.0618 66.7263 20.0618C66.2216 20.0618 65.8009 20.1879 65.4644 20.4403C65.1279 20.6927 64.8875 21.0292 64.7433 21.4499H62.3277V13.7342H70.476V15.9515Z" fill="#07143B"/>
<path d="M30.5519 27.2247C30.4198 27.2252 30.2908 27.1846 30.1835 27.1088L25.1368 23.509L20.09 27.1088C19.9822 27.1858 19.8523 27.227 19.7191 27.2265C19.5859 27.226 19.4564 27.1839 19.3491 27.1062C19.2419 27.0285 19.1625 26.9192 19.1225 26.7942C19.0825 26.6692 19.084 26.5349 19.1267 26.4108L21.095 20.6748L15.9937 17.2329C15.8832 17.1585 15.7998 17.0512 15.7557 16.9268C15.7116 16.8023 15.7091 16.6673 15.7486 16.5414C15.788 16.4154 15.8674 16.3052 15.975 16.2268C16.0827 16.1484 16.213 16.1059 16.3469 16.1056H22.6403L24.5395 10.3549C24.5804 10.2308 24.6603 10.1226 24.7676 10.0458C24.8748 9.96907 25.0041 9.92773 25.1368 9.92773C25.2694 9.92773 25.3987 9.96907 25.5059 10.0458C25.6132 10.1226 25.6931 10.2308 25.734 10.3549L27.6332 16.1075H33.9266C34.0607 16.1075 34.1913 16.1496 34.2993 16.2279C34.4072 16.3061 34.4869 16.4163 34.5266 16.5424C34.5663 16.6684 34.564 16.8036 34.5199 16.9282C34.4758 17.0528 34.3924 17.1603 34.2817 17.2349L29.1785 20.6748L31.1456 26.4093C31.1775 26.5021 31.1865 26.6011 31.1718 26.698C31.1571 26.7949 31.1192 26.887 31.0612 26.9667C31.0032 27.0463 30.9268 27.1113 30.8382 27.1561C30.7497 27.201 30.6515 27.2245 30.5519 27.2247Z" fill="#FFC700"/>
<defs>
<filter id="filter0_b_276_3537" x="-8.27247" y="-7.667" width="106.043" height="53.5518" filterUnits="userSpaceOnUse" color-interpolation-filters="sRGB">
<feFlood flood-opacity="0" result="BackgroundImageFix"/>
<feGaussianBlur in="BackgroundImageFix" stdDeviation="4.2417"/>
<feComposite in2="SourceAlpha" operator="in" result="effect1_backgroundBlur_276_3537"/>
<feBlend mode="normal" in="SourceGraphic" in2="effect1_backgroundBlur_276_3537" result="shape"/>
</filter>
</defs>
</svg>
