<svg width="142" height="30" viewBox="0 0 142 30" fill="none" xmlns="http://www.w3.org/2000/svg">
<g clip-path="url(#clip0_486_4073)">
<g clip-path="url(#clip1_486_4073)">
<mask id="mask0_486_4073" style="mask-type:luminance" maskUnits="userSpaceOnUse" x="0" y="2" width="25" height="25">
<path d="M0.5 2.69434H24.5V26.6943H0.5V2.69434Z" fill="white"/>
</mask>
<g mask="url(#mask0_486_4073)">
<path fill-rule="evenodd" clip-rule="evenodd" d="M0.5 14.7613C0.5 20.7283 4.833 25.6883 10.5 26.6943V18.0273H7.5V14.6943H10.5V12.0273C10.5 9.02734 12.433 7.36134 15.167 7.36134C16.033 7.36134 16.967 7.49434 17.833 7.62734V10.6943H16.3C14.833 10.6943 14.5 11.4273 14.5 12.3613V14.6943H17.7L17.167 18.0273H14.5V26.6943C20.167 25.6883 24.5 20.7283 24.5 14.7613C24.5 8.12434 19.1 2.69434 12.5 2.69434C5.9 2.69434 0.5 8.12434 0.5 14.7613Z" fill="white"/>
</g>
</g>
<path d="M80.3808 4.9374C79.3828 5.40884 77.6844 6.29296 76.8309 6.46195C76.7979 6.47052 76.7709 6.48154 76.7391 6.49011C75.7435 5.50803 74.3794 4.89944 72.8695 4.89944C69.8266 4.89944 67.3591 7.36688 67.3591 10.4099C67.3591 10.5703 67.3456 10.8654 67.3591 11.0221C63.4186 11.0221 60.5409 8.96612 58.3869 6.32357C58.0992 5.96846 57.793 6.15336 57.7294 6.40562C57.5861 6.97625 57.5371 7.93017 57.5371 8.61101C57.5371 10.3266 58.878 12.0115 60.9658 13.0561C60.5813 13.1553 60.1576 13.2263 59.7168 13.2263C59.1976 13.2263 58.6 13.0904 58.0771 12.8161C57.8837 12.7144 57.4661 12.7426 57.5898 13.2373C58.0857 15.2198 60.3486 16.6121 62.3704 17.0175C61.9112 17.2881 60.9315 17.233 60.4809 17.233C60.3144 17.233 59.7352 17.1938 59.3604 17.1473C59.0188 17.1056 58.4935 17.1938 58.9331 17.8599C59.8772 19.289 62.0128 20.1866 63.8508 20.2208C62.1585 21.5482 59.3911 22.0332 56.7399 22.0332C56.2036 22.0209 56.2305 22.632 56.6628 22.8585C58.6184 23.8847 61.8218 24.492 64.1104 24.492C73.2087 24.492 78.38 17.5575 78.38 11.0209C78.38 10.9156 78.3775 10.6952 78.3738 10.4735C78.3738 10.4515 78.38 10.4307 78.38 10.4086C78.38 10.3756 78.3702 10.3437 78.3702 10.3107C78.3665 10.1441 78.3628 9.98861 78.3591 9.90779C79.0804 9.38736 80.1849 8.48366 80.7433 7.79179C80.9331 7.55668 80.78 7.27136 80.5217 7.36076C79.8567 7.59219 78.7069 8.04037 77.9869 8.12609C79.4282 7.17218 80.1408 6.34194 80.7531 5.41987C80.9625 5.10516 80.7005 4.78555 80.3808 4.9374Z" fill="white"/>
<path d="M128.408 2.61133C129.768 2.61495 130.458 2.6222 131.053 2.63912L131.288 2.64758C131.558 2.65724 131.825 2.66933 132.148 2.68383C133.434 2.74424 134.311 2.94724 135.081 3.2457C135.878 3.55262 136.55 3.96829 137.222 4.63891C137.836 5.24295 138.312 5.97362 138.615 6.78008C138.913 7.54979 139.116 8.42704 139.177 9.71391C139.191 10.0353 139.203 10.3024 139.213 10.5742L139.22 10.8087C139.239 11.4032 139.246 12.0931 139.248 13.4525L139.249 14.3539V15.9368C139.252 16.8182 139.243 17.6996 139.222 18.5807L139.214 18.8151C139.205 19.087 139.193 19.354 139.178 19.6754C139.118 20.9623 138.912 21.8383 138.615 22.6092C138.313 23.4161 137.837 24.147 137.222 24.7504C136.618 25.3646 135.887 25.84 135.081 26.1436C134.311 26.4421 133.434 26.6451 132.148 26.7055C131.861 26.719 131.575 26.7311 131.288 26.7417L131.053 26.749C130.458 26.7659 129.768 26.7744 128.408 26.7768L127.507 26.778H125.925C125.043 26.781 124.162 26.7718 123.28 26.7502L123.046 26.743C122.759 26.7321 122.472 26.7196 122.185 26.7055C120.9 26.6451 120.022 26.4421 119.251 26.1436C118.445 25.8408 117.715 25.3653 117.112 24.7504C116.497 24.1466 116.021 23.4159 115.717 22.6092C115.419 21.8395 115.216 20.9623 115.155 19.6754C115.142 19.3887 115.13 19.1019 115.119 18.8151L115.113 18.5807C115.091 17.6996 115.081 16.8182 115.083 15.9368V13.4525C115.079 12.5711 115.088 11.6898 115.109 10.8087L115.118 10.5742C115.127 10.3024 115.14 10.0353 115.154 9.71391C115.214 8.42704 115.417 7.55099 115.716 6.78008C116.019 5.9728 116.496 5.2419 117.113 4.63891C117.716 4.02444 118.446 3.54898 119.251 3.2457C120.022 2.94724 120.898 2.74424 122.185 2.68383C122.507 2.66933 122.775 2.65724 123.046 2.64758L123.28 2.64033C124.161 2.61886 125.043 2.60959 125.924 2.61254L128.408 2.61133ZM127.166 8.65299C125.564 8.65299 124.027 9.28953 122.894 10.4226C121.761 11.5556 121.124 13.0923 121.124 14.6947C121.124 16.297 121.761 17.8337 122.894 18.9668C124.027 20.0998 125.564 20.7363 127.166 20.7363C128.768 20.7363 130.305 20.0998 131.438 18.9668C132.571 17.8337 133.208 16.297 133.208 14.6947C133.208 13.0923 132.571 11.5556 131.438 10.4226C130.305 9.28953 128.768 8.65299 127.166 8.65299ZM127.166 11.0697C127.642 11.0696 128.113 11.1633 128.553 11.3454C128.993 11.5275 129.393 11.7944 129.73 12.131C130.066 12.4675 130.333 12.8671 130.515 13.3069C130.698 13.7467 130.792 14.218 130.792 14.6941C130.792 15.1701 130.698 15.6415 130.516 16.0813C130.334 16.5212 130.067 16.9208 129.73 17.2575C129.394 17.5942 128.994 17.8612 128.554 18.0435C128.115 18.2257 127.643 18.3196 127.167 18.3197C126.206 18.3197 125.284 17.9377 124.604 17.2579C123.924 16.5781 123.542 15.6561 123.542 14.6947C123.542 13.7333 123.924 12.8112 124.604 12.1314C125.284 11.4516 126.206 11.0697 127.167 11.0697M133.511 6.84049C133.11 6.84049 132.726 6.99963 132.443 7.28289C132.16 7.56614 132.001 7.95032 132.001 8.35091C132.001 8.7515 132.16 9.13568 132.443 9.41894C132.726 9.7022 133.11 9.86133 133.511 9.86133C133.912 9.86133 134.296 9.7022 134.579 9.41894C134.862 9.13568 135.021 8.7515 135.021 8.35091C135.021 7.95032 134.862 7.56614 134.579 7.28289C134.296 6.99963 133.912 6.84049 133.511 6.84049Z" fill="white"/>
</g>
<defs>
<clipPath id="clip0_486_4073">
<rect width="141.167" height="29.3889" fill="white" transform="translate(0.5)"/>
</clipPath>
<clipPath id="clip1_486_4073">
<rect width="24" height="24" fill="white" transform="translate(0.5 2.69434)"/>
</clipPath>
</defs>
</svg>
